REM DIRINDEX 1\2\6,1\2\7,1\2\8,1\2\9,1\3\10,1\3\11,1\4\12,1\4\13,1\4\14,1\5\15,1\5\16,1\5\17
REM DIRNAME folder01,folder02,folder03,folder04,folder05,folder06,folder07,folder08,folder09,folder10,folder11,folder12,folder13,folder14,folder15,folder16,folder17
TITLE ""
FILE "1400_3_sec03_0216_0231.mp3" MP3
  TRACK 01 AUDIO
    TITLE "0:"
    INDEX 01 00:00:00
  TRACK 02 AUDIO
    TITLE "17:cjc029_4860"
    INDEX 01 00:00:15
  TRACK 03 AUDIO
    TITLE "0:"
    INDEX 01 00:01:50
  TRACK 04 AUDIO
    TITLE "16:cjc029_4861"
    INDEX 01 00:01:58
  TRACK 05 AUDIO
    TITLE "0:"
    INDEX 01 00:02:63
  TRACK 06 AUDIO
    TITLE "17:cjc029_4862"
    INDEX 01 00:03:47
  TRACK 07 AUDIO
    TITLE "0:"
    INDEX 01 00:04:62
  TRACK 08 AUDIO
    TITLE "16:cjc029_4863"
    INDEX 01 00:04:70
  TRACK 09 AUDIO
    TITLE "0:"
    INDEX 01 00:05:71
  TRACK 10 AUDIO
    TITLE "17:cjc029_4864"
    INDEX 01 00:06:57
  TRACK 11 AUDIO
    TITLE "0:"
    INDEX 01 00:07:72
  TRACK 12 AUDIO
    TITLE "16:cjc029_4865"
    INDEX 01 00:08:01
  TRACK 13 AUDIO
    TITLE "0:"
    INDEX 01 00:08:68
  TRACK 14 AUDIO
    TITLE "17:cjc029_4866"
    INDEX 01 00:09:53
  TRACK 15 AUDIO
    TITLE "0:"
    INDEX 01 00:10:63
  TRACK 16 AUDIO
    TITLE "16:cjc029_4867"
    INDEX 01 00:10:70
  TRACK 17 AUDIO
    TITLE "0:"
    INDEX 01 00:12:12
  TRACK 18 AUDIO
    TITLE "17:cjc029_4868"
    INDEX 01 00:12:73
  TRACK 19 AUDIO
    TITLE "0:"
    INDEX 01 00:13:73
  TRACK 20 AUDIO
    TITLE "16:cjc029_4869"
    INDEX 01 00:14:04
  TRACK 21 AUDIO
    TITLE "0:"
    INDEX 01 00:15:17
  TRACK 22 AUDIO
    TITLE "17:cjc029_4870"
    INDEX 01 00:16:02
  TRACK 23 AUDIO
    TITLE "0:"
    INDEX 01 00:17:25
  TRACK 24 AUDIO
    TITLE "16:cjc029_4871"
    INDEX 01 00:17:31
  TRACK 25 AUDIO
    TITLE "0:"
    INDEX 01 00:18:31
  TRACK 26 AUDIO
    TITLE "17:cjc029_4872"
    INDEX 01 00:19:18
  TRACK 27 AUDIO
    TITLE "0:"
    INDEX 01 00:20:30
  TRACK 28 AUDIO
    TITLE "16:cjc029_4873"
    INDEX 01 00:20:36
  TRACK 29 AUDIO
    TITLE "0:"
    INDEX 01 00:21:45
  TRACK 30 AUDIO
    TITLE "17:cjc029_4874"
    INDEX 01 00:22:27
  TRACK 31 AUDIO
    TITLE "0:"
    INDEX 01 00:23:59
  TRACK 32 AUDIO
    TITLE "16:cjc029_4875"
    INDEX 01 00:23:65
  TRACK 33 AUDIO
    TITLE "0:"
    INDEX 01 00:24:65
  TRACK 34 AUDIO
    TITLE "17:cjc029_4876"
    INDEX 01 00:25:52
  TRACK 35 AUDIO
    TITLE "0:"
    INDEX 01 00:26:71
  TRACK 36 AUDIO
    TITLE "16:cjc029_4877"
    INDEX 01 00:27:02
  TRACK 37 AUDIO
    TITLE "0:"
    INDEX 01 00:28:15
  TRACK 38 AUDIO
    TITLE "17:cjc029_4878"
    INDEX 01 00:29:01
  TRACK 39 AUDIO
    TITLE "0:"
    INDEX 01 00:30:30
  TRACK 40 AUDIO
    TITLE "16:cjc029_4879"
    INDEX 01 00:30:34
  TRACK 41 AUDIO
    TITLE "0:"
    INDEX 01 00:31:43
  TRACK 42 AUDIO
    TITLE "17:cjc029_4880"
    INDEX 01 00:32:31
  TRACK 43 AUDIO
    TITLE "0:"
    INDEX 01 00:33:42
  TRACK 44 AUDIO
    TITLE "16:cjc029_4881"
    INDEX 01 00:33:48
  TRACK 45 AUDIO
    TITLE "0:"
    INDEX 01 00:34:65
  TRACK 46 AUDIO
    TITLE "17:cjc029_4882"
    INDEX 01 00:35:51
  TRACK 47 AUDIO
    TITLE "0:"
    INDEX 01 00:37:01
  TRACK 48 AUDIO
    TITLE "16:cjc029_4883"
    INDEX 01 00:37:07
  TRACK 49 AUDIO
    TITLE "0:"
    INDEX 01 00:38:10
  TRACK 50 AUDIO
    TITLE "17:cjc029_4884"
    INDEX 01 00:38:71
  TRACK 51 AUDIO
    TITLE "0:"
    INDEX 01 00:40:13
  TRACK 52 AUDIO
    TITLE "16:cjc029_4885"
    INDEX 01 00:40:17
  TRACK 53 AUDIO
    TITLE "0:"
    INDEX 01 00:41:20
  TRACK 54 AUDIO
    TITLE "17:cjc029_4886"
    INDEX 01 00:42:04
  TRACK 55 AUDIO
    TITLE "0:"
    INDEX 01 00:43:35
  TRACK 56 AUDIO
    TITLE "16:cjc029_4887"
    INDEX 01 00:43:40
  TRACK 57 AUDIO
    TITLE "0:"
    INDEX 01 00:44:38
  TRACK 58 AUDIO
    TITLE "17:cjc029_4888"
    INDEX 01 00:45:22
  TRACK 59 AUDIO
    TITLE "0:"
    INDEX 01 00:47:68
  TRACK 60 AUDIO
    TITLE "16:cjc029_4889"
    INDEX 01 00:48:00
  TRACK 61 AUDIO
    TITLE "0:"
    INDEX 01 00:48:67
  TRACK 62 AUDIO
    TITLE "17:cjc029_4890"
    INDEX 01 00:49:53
  TRACK 63 AUDIO
    TITLE "0:"
    INDEX 01 00:50:72
  TRACK 64 AUDIO
    TITLE "16:cjc029_4891"
    INDEX 01 00:51:03
  TRACK 65 AUDIO
    TITLE "0:"
    INDEX 01 00:52:10
